<svg xmlns="http://www.w3.org/2000/svg" width="1200" height="630" viewBox="0 0 1200 630">
  <defs><linearGradient id="bg" x1="0" y1="0" x2="1" y2="1"><stop offset="0%" stop-color="#050a08"/><stop offset="55%" stop-color="#07110d"/><stop offset="100%" stop-color="#020504"/></linearGradient><radialGradient id="glow" cx="75%" cy="50%" r="55%"><stop offset="0%" stop-color="#39d0c9" stop-opacity=".18"/><stop offset="100%" stop-color="#39d0c9" stop-opacity="0"/></radialGradient><pattern id="grid" width="42" height="42" patternUnits="userSpaceOnUse"><path d="M42 0H0V42" fill="none" stroke="#39d0c9" stroke-opacity=".07" stroke-width="1"/></pattern><style>.title{font-family:Inter,Segoe UI,Arial,sans-serif;font-weight:800;fill:#f4f7f5}.sub{font-family:Inter,Segoe UI,Arial,sans-serif;font-weight:600;fill:#39d0c9}.body{font-family:Inter,Segoe UI,Arial,sans-serif;font-weight:400;fill:#c7d0cb}.muted{font-family:Inter,Segoe UI,Arial,sans-serif;font-weight:500;fill:#8da098}.mono{font-family:"SFMono-Regular",Consolas,monospace;fill:#a7f3b4}.tag{font-family:Inter,Segoe UI,Arial,sans-serif;font-size:16px;font-weight:600;fill:#d8e3dc}</style></defs>
  <rect width="1200" height="630" rx="32" fill="url(#bg)"/><rect width="1200" height="630" rx="32" fill="url(#grid)"/><ellipse cx="900" cy="280" rx="420" ry="330" fill="url(#glow)"/><rect x="1.5" y="1.5" width="1197" height="627" rx="30" fill="none" stroke="#39d0c9" stroke-opacity=".34" stroke-width="3"/>
  <text x="68" y="88" class="mono" font-size="18">&gt; featured-project</text><text x="68" y="180" class="title" font-size="62">Devjit Portfolio</text><text x="68" y="232" class="sub" font-size="24">Personal Developer Portfolio</text><rect x="68" y="258" width="122" height="4" rx="2" fill="#39d0c9"/><text x="68" y="320" class="body" font-size="22">Showcasing projects, skills,</text><text x="68" y="354" class="body" font-size="22">experience and ways to connect.</text>
  <g transform="translate(68,455)"><rect width="72" height="38" rx="19" fill="#0d1512" stroke="#39d0c9" stroke-opacity=".55"/><text x="36" y="25" text-anchor="middle" class="tag">React</text></g><g transform="translate(153.5,455)"><rect width="138" height="38" rx="19" fill="#0d1512" stroke="#39d0c9" stroke-opacity=".55"/><text x="69" y="25" text-anchor="middle" class="tag">Tailwind CSS</text></g><g transform="translate(305.5,455)"><rect width="148" height="38" rx="19" fill="#0d1512" stroke="#39d0c9" stroke-opacity=".55"/><text x="74" y="25" text-anchor="middle" class="tag">Framer Motion</text></g><g transform="translate(467,455)"><rect width="90" height="38" rx="19" fill="#0d1512" stroke="#39d0c9" stroke-opacity=".55"/><text x="45" y="25" text-anchor="middle" class="tag">EmailJS</text></g>
  <g transform="translate(725,88)"><rect width="390" height="440" rx="24" fill="#07100f" stroke="#39d0c9" stroke-opacity=".45"/><rect x="24" y="22" width="342" height="42" rx="10" fill="#0b1715"/><circle cx="45" cy="43" r="5" fill="#39d0c9"/><circle cx="65" cy="43" r="5" fill="#648b7c"/><circle cx="85" cy="43" r="5" fill="#334c43"/><text x="34" y="130" class="muted" font-size="18">Hi, I'm</text><text x="34" y="172" class="title" font-size="36">Devjit Mondal</text><text x="34" y="206" class="sub" font-size="20">Frontend Developer</text><rect x="34" y="250" width="128" height="46" rx="12" fill="#39d0c9"/><text x="98" y="280" text-anchor="middle" font-family="Inter,Arial" font-weight="700" font-size="15" fill="#021007">View Projects</text><rect x="176" y="250" width="128" height="46" rx="12" fill="#0b1715" stroke="#3d7663"/><text x="240" y="280" text-anchor="middle" class="body" font-size="15">Contact</text><rect x="34" y="332" width="332" height="72" rx="16" fill="#0b1715"/><text x="52" y="362" class="muted" font-size="14">TECH STACK</text><text x="52" y="390" class="body" font-size="17">React  •  JavaScript  •  Tailwind  •  Git</text></g>
</svg>